<svg width="32" height="32" viewBox="0 0 32 32" xmlns="http://www.w3.org/2000/svg">
  <defs>
    <linearGradient id="bgGradient" x1="0%" y1="0%" x2="100%" y2="100%">
      <stop offset="0%" stop-color="#8b5cf6" style="stop-color: oklch(0.51 0.23 277);" />
      <stop offset="100%" stop-color="#9333ea" />
    </linearGradient>
  </defs>
  <rect width="32" height="32" rx="8" fill="url(#bgGradient)" />
  
  <!-- ScanLine -->
  <svg x="4" y="4" width="24" height="24" viewBox="0 0 24 24" fill="none" stroke="rgba(255, 255, 255, 0.4)" stroke-width="2" stroke-linecap="round" stroke-linejoin="round">
    <path d="M3 7V5a2 2 0 0 1 2-2h2" />
    <path d="M17 3h2a2 2 0 0 1 2 2v2" />
    <path d="M21 17v2a2 2 0 0 1-2 2h-2" />
    <path d="M7 21H5a2 2 0 0 1-2-2v-2" />
    <path d="M7 12h10" />
  </svg>
  
  <!-- ReceiptText -->
  <svg x="7" y="7" width="18" height="18" viewBox="0 0 24 24" fill="none" stroke="white" stroke-width="2.5" stroke-linecap="round" stroke-linejoin="round">
    <path d="M4 2v20l2-1 2 1 2-1 2 1 2-1 2 1 2-1 2 1V2l-2 1-2-1-2 1-2-1-2 1-2-1-2 1Z" />
    <path d="M14 8H8" />
    <path d="M16 12H8" />
    <path d="M13 16H8" />
  </svg>
</svg>
